# xmcd
#
# Track frame offsets:
#	150
#	6420
#	31432
#	54102
#	85385
#	110635
#	124194
#	143754
#	166911
#	194652
#	212269
#
# Disc length: 3372 seconds
#
# Revision: 2
# Processed by: cddbd v1.5.2PL0 Copyright (c) Steve Scherf et al.
# Submitted via: audiograbber 1.83.01
#
DISCID=940d2a0b
DTITLE=Songs 4 Worship - Songs 4 Worship - All Creation Worships Disc 2. 2003
DYEAR=2003
DGENRE=Worship and Praise
TTITLE0=Don Moen - Our Father Overture
TTITLE1=Don Moen - Our Father
TTITLE2=Lincoln Brewster - Psalm 91
TTITLE3=Tommy Walker/Kristina Hamilton - How Could I But Love You
TTITLE4=Brian Doerksen - It Is Well With My Soul
TTITLE5=Rhonda Scelsi - Come To The Table
TTITLE6=Bob Fitts - I Will Bow To You
TTITLE7=The Intergrity Worship Singers - You Are Beautiful
TTITLE8=Ron Kenoly and Darlene Zschech - You Are
TTITLE9=Lenny LeBlanc - We All Bow Down
TTITLE10=Cindy Cruse-Ratcliff - We Speak To Nations
EXTD=
EXTT0=
EXTT1=
EXTT2=
EXTT3=
EXTT4=
EXTT5=
EXTT6=
EXTT7=
EXTT8=
EXTT9=
EXTT10=
PLAYORDER=
